<?xml version="1.0" encoding="UTF-8" standalone="no"?>
<!-- Created with Inkscape (http://www.inkscape.org/) -->

<svg
   version="1.1"
   id="svg1"
   width="216.10052"
   height="216.10052"
   viewBox="0 0 216.10052 216.10052"
   sodipodi:docname="ecoscan-logo.svg"
   inkscape:version="1.4 (e7c3feb100, 2024-10-09)"
   inkscape:export-filename="../../Documentos/logo-ecoscan.svg"
   inkscape:export-xdpi="96"
   inkscape:export-ydpi="96"
   xmlns:inkscape="http://www.inkscape.org/namespaces/inkscape"
   xmlns:sodipodi="http://sodipodi.sourceforge.net/DTD/sodipodi-0.dtd"
   xmlns="http://www.w3.org/2000/svg"
   xmlns:svg="http://www.w3.org/2000/svg">
  <sodipodi:namedview
     id="namedview1"
     pagecolor="#ffffff"
     bordercolor="#000000"
     borderopacity="0.25"
     inkscape:showpageshadow="2"
     inkscape:pageopacity="0.0"
     inkscape:pagecheckerboard="0"
     inkscape:deskcolor="#d1d1d1"
     inkscape:zoom="3.2819951"
     inkscape:cx="108.01357"
     inkscape:cy="22.547261"
     inkscape:window-width="1920"
     inkscape:window-height="1131"
     inkscape:window-x="0"
     inkscape:window-y="0"
     inkscape:window-maximized="1"
     inkscape:current-layer="svg1">
    <inkscape:page
       x="0"
       y="0"
       width="216.10052"
       height="216.10052"
       id="page2"
       margin="0"
       bleed="0" />
  </sodipodi:namedview>
  <defs
     id="defs1" />
  <g
     id="g1">
    <circle
       style="fill:#42c66e;fill-opacity:1;stroke:#ade5c1;stroke-width:4.52381;stroke-dasharray:none;stroke-opacity:0.78038;paint-order:stroke fill markers"
       id="path3"
       cx="108.05027"
       cy="108.05027"
       r="105.78836" />
    <path
       d="m 151.03556,47.5973 c -0.60163,0.038 -1.2461,0.17369 -1.936,0.42331 -8.09316,2.92848 -12.87053,12.04835 -21.43251,15.09285 -9.21226,3.27572 -18.65202,3.03583 -28.12928,4.80491 -16.01427,2.9893 -30.29022,12.26505 -37.28771,27.25055 -2.55559,5.47295 -4.46885,12.66515 -3.9262,18.75422 0.35161,3.94521 3.00053,9.65513 2.32121,13.39355 -0.53,2.91664 -3.87716,5.18447 -5.66758,7.36887 -4.71803,5.75622 -15.35926,24.01412 -4.98949,29.34907 11.69913,6.01887 10.68995,-20.18586 20.7504,-18.88059 4.81065,0.62415 12.11625,8.93339 16.74395,11.42545 11.56367,6.22724 27.37661,5.92769 39.51663,1.39233 28.87529,-10.78737 43.13768,-40.70871 39.12742,-70.16974 -1.49663,-10.99485 -3.97287,-21.59425 -7.48122,-32.14778 -1.26273,-3.79844 -3.39807,-8.32313 -7.60962,-8.057 z"
       style="fill:#ffffff;stroke-width:1.02719"
       id="path2" />
  </g>
</svg>
